<svg width="942" height="31" viewBox="0 0 942 31" fill="none" xmlns="http://www.w3.org/2000/svg">
<path d="M496.348 15.5C496.348 18.7444 494.008 22.0812 489.352 24.7202C484.755 27.3254 478.271 29 471 29C463.729 29 457.245 27.3254 452.648 24.7202C447.992 22.0812 445.652 18.7444 445.652 15.5C445.652 12.2556 447.992 8.91885 452.648 6.27982C457.245 3.67463 463.729 2 471 2C478.271 2 484.755 3.67463 489.352 6.27982C494.008 8.91885 496.348 12.2556 496.348 15.5Z" fill="#008000" stroke="#FEFBFB" stroke-width="4"/>
<rect y="9.11765" width="443.652" height="12.7647" rx="6.38235" fill="#008000"/>
<rect x="498.348" y="9.11765" width="443.652" height="12.7647" rx="6.38235" fill="#008000"/>
</svg>
