<svg width="100" height="600" viewBox="0 0 691 742" fill="none" xmlns="http://www.w3.org/2000/svg">
<rect x="143.411" y="20.0421" width="493" height="607" transform="rotate(13.6074 143.411 20.0421)" fill="url(#paint0_linear_0_1)" fill-opacity="0.97" stroke="black"/>
<path d="M147.708 20.0533L237.586 22.2608L686.784 130.995L623.22 135.157L147.708 20.0533Z" fill="white" stroke="black"/>
<path d="M480.882 725.629L623.576 136.136L689.44 131.823L555.315 685.917L480.882 725.629Z" fill="white" stroke="black"/>
<path d="M676.043 132.826L646.505 255.575L541.043 693.826" stroke="black"/>
<path d="M643.043 132.826L612.629 259.951L504.043 713.826" stroke="black"/>
<path d="M634.043 134.826L603.41 262.607L494.043 718.826" stroke="black"/>
<path d="M639.043 134.826L608.629 261.951L500.043 715.826" stroke="black"/>
<path d="M672.043 132.826L642.505 256.012L537.043 695.826" stroke="black"/>
<path d="M668.043 132.826L638.505 256.45L533.043 697.826" stroke="black"/>
<path d="M664.043 132.826L634.286 257.107L528.043 700.826" stroke="black"/>
<path d="M659.043 134.826L629.505 259.107L524.043 702.826" stroke="black"/>
<path d="M651.043 134.826L621.067 260.201L514.043 707.826" stroke="black"/>
<path d="M685.043 131.826L655.942 253.481L552.043 687.826" stroke="black"/>
<path d="M680.043 131.826L650.942 254.137L547.043 690.826" stroke="black"/>
<path d="M630.043 134.826L598.973 263.264L488.043 721.826" stroke="black"/>
<path d="M626.043 135.826L594.973 264.483L484.043 723.826" stroke="black"/>
<path d="M655.043 134.826L625.286 259.763L519.043 705.826" stroke="black"/>
<path d="M646.043 134.826L616.067 260.857L509.043 710.826" stroke="black"/>
<line x1="175.164" y1="21.341" x2="633.164" y2="135.341" stroke="black"/>
<line x1="161.163" y1="20.3409" x2="625.163" y2="135.341" stroke="black"/>
<line x1="187.162" y1="21.3406" x2="643.162" y2="133.341" stroke="black"/>
<line x1="205.161" y1="21.3404" x2="660.161" y2="132.34" stroke="black"/>
<line x1="224.161" y1="22.3404" x2="676.161" y2="132.34" stroke="black"/>
<rect x="127.17" y="196.741" width="457.425" height="88.295" transform="rotate(14.8033 127.17 196.741)" fill="#B30E08" stroke="black"/>
<rect x="330.779" y="115" width="99.6509" height="440.055" transform="rotate(16.1877 330.779 115)" fill="#B30E08"/>
<path d="M134.343 252.591L136.784 253.219C137.109 253.302 137.346 253.301 137.494 253.215C137.649 253.106 137.767 252.902 137.85 252.601L143.592 231.778C143.681 231.454 143.683 231.219 143.599 231.074C143.515 230.928 143.31 230.813 142.984 230.73L140.544 230.102L140.85 228.992L153.123 232.147C154.494 232.499 155.703 233.083 156.748 233.896C157.816 234.716 158.586 235.67 159.058 236.757C159.536 237.822 159.619 238.921 159.306 240.054C158.885 241.581 157.975 242.673 156.574 243.329C155.173 243.985 153.587 244.32 151.816 244.335L151.759 244.544C152.783 244.98 153.733 245.596 154.609 246.391C155.515 247.169 156.187 248.073 156.625 249.102C157.063 250.132 157.126 251.213 156.813 252.347C156.424 253.758 155.717 254.877 154.693 255.704C153.668 256.531 152.455 257.049 151.053 257.259C149.681 257.451 148.251 257.356 146.763 256.973L134.037 253.702L134.343 252.591ZM149.395 243.23C150.65 243.553 151.62 243.331 152.304 242.565C152.994 241.777 153.585 240.492 154.076 238.71C154.491 237.206 154.546 235.969 154.241 234.999C153.942 234.005 153.328 233.389 152.398 233.15L149.818 232.487C149.516 232.409 149.279 232.41 149.108 232.49C148.96 232.576 148.841 232.78 148.752 233.104L146.187 242.405L149.395 243.23ZM145.989 255.585C147.22 255.902 148.25 255.733 149.078 255.078C149.935 254.407 150.654 253.018 151.235 250.913C151.815 248.807 151.903 247.269 151.499 246.298C151.124 245.31 150.321 244.657 149.089 244.341L145.881 243.516L143.01 253.927C142.928 254.228 142.925 254.463 143.003 254.632C143.111 254.783 143.315 254.898 143.618 254.975L145.989 255.585ZM169.218 263.415C167.428 262.955 165.9 261.905 164.635 260.267C163.392 258.634 162.569 256.701 162.164 254.466C161.766 252.208 161.87 249.98 162.476 247.782C163.082 245.584 164.136 243.613 165.638 241.868C167.146 240.1 168.859 238.806 170.778 237.986C172.72 237.172 174.586 236.995 176.375 237.455C178.165 237.916 179.681 238.962 180.924 240.594C182.19 242.233 183.021 244.181 183.42 246.439C183.824 248.674 183.723 250.89 183.117 253.088C182.511 255.286 181.454 257.269 179.946 259.037C178.444 260.782 176.723 262.061 174.781 262.875C172.862 263.695 171.008 263.875 169.218 263.415ZM169.524 262.304C170.942 262.669 172.163 262.438 173.188 261.611C174.242 260.767 175.097 259.153 175.754 256.77L178.625 246.359C179.282 243.976 179.368 242.176 178.881 240.961C178.424 239.729 177.487 238.93 176.069 238.566C174.651 238.201 173.415 238.441 172.361 239.285C171.337 240.112 170.496 241.717 169.839 244.1L166.968 254.511C166.311 256.895 166.211 258.702 166.668 259.935C167.154 261.15 168.106 261.94 169.524 262.304ZM194.04 269.796C192.25 269.336 190.722 268.286 189.456 266.648C188.214 265.015 187.39 263.082 186.986 260.847C186.588 258.589 186.692 256.361 187.298 254.163C187.904 251.965 188.958 249.994 190.46 248.249C191.968 246.481 193.681 245.187 195.6 244.367C197.542 243.553 199.407 243.376 201.197 243.836C202.987 244.297 204.503 245.343 205.746 246.975C207.011 248.614 207.843 250.562 208.241 252.82C208.646 255.055 208.545 257.271 207.939 259.469C207.333 261.667 206.276 263.65 204.768 265.418C203.266 267.163 201.544 268.442 199.602 269.256C197.684 270.076 195.829 270.256 194.04 269.796ZM194.346 268.685C195.764 269.05 196.985 268.819 198.009 267.992C199.064 267.148 199.919 265.534 200.576 263.151L203.447 252.74C204.104 250.357 204.189 248.557 203.703 247.342C203.246 246.11 202.309 245.311 200.891 244.947C199.473 244.582 198.237 244.822 197.183 245.666C196.158 246.493 195.318 248.098 194.661 250.481L191.79 260.892C191.133 263.276 191.033 265.083 191.489 266.316C191.976 267.531 192.928 268.321 194.346 268.685ZM208.741 271.717L211.181 272.344C211.507 272.428 211.743 272.427 211.892 272.341C212.046 272.232 212.165 272.027 212.248 271.726L217.989 250.903C218.078 250.579 218.081 250.345 217.997 250.199C217.912 250.054 217.707 249.939 217.382 249.855L214.941 249.228L215.247 248.117L226.684 251.057L226.377 252.168L224.216 251.612C223.914 251.534 223.677 251.535 223.505 251.615C223.357 251.701 223.239 251.906 223.149 252.23L220.317 262.503L229.19 256.458C229.617 256.172 229.924 255.916 230.11 255.692C230.326 255.45 230.482 255.156 230.578 254.808C230.693 254.392 230.672 254.015 230.516 253.678C230.36 253.34 230.097 253.124 229.725 253.028L228.713 252.768L229.02 251.658L237.632 253.872L237.325 254.982L236.105 254.668C235.617 254.543 235.058 254.585 234.427 254.795C233.827 254.987 233.262 255.275 232.733 255.66L226.578 259.838L230.116 275.576C230.259 276.233 230.438 276.712 230.653 277.015C230.875 277.295 231.253 277.504 231.787 277.641L232.729 277.883L232.422 278.994L221.474 276.179L221.781 275.069L223.175 275.427C223.384 275.481 223.578 275.457 223.756 275.354C223.94 275.228 224.057 275.072 224.108 274.887C224.147 274.748 224.165 274.592 224.163 274.418C224.191 274.227 224.194 274.079 224.173 273.974L221.759 263.096L219.791 264.411L217.408 273.053C217.325 273.354 217.322 273.588 217.4 273.757C217.508 273.909 217.713 274.023 218.015 274.101L220.177 274.657L219.871 275.767L208.434 272.827L208.741 271.717Z" fill="white"/>
<path d="M307.988 296.87C306.199 296.41 304.671 295.36 303.405 293.722C302.163 292.089 301.339 290.156 300.935 287.921C300.537 285.663 300.641 283.435 301.247 281.237C301.853 279.039 302.907 277.068 304.408 275.323C305.916 273.555 307.63 272.261 309.548 271.441C311.49 270.627 313.356 270.45 315.146 270.911C316.936 271.371 318.452 272.417 319.694 274.05C320.96 275.688 321.792 277.636 322.19 279.894C322.594 282.129 322.494 284.345 321.888 286.543C321.282 288.741 320.225 290.724 318.717 292.492C317.215 294.237 315.493 295.516 313.551 296.33C311.632 297.15 309.778 297.33 307.988 296.87ZM308.295 295.759C309.713 296.124 310.934 295.893 311.958 295.066C313.012 294.222 313.868 292.608 314.525 290.225L317.396 279.814C318.053 277.431 318.138 275.632 317.652 274.416C317.195 273.184 316.258 272.386 314.84 272.021C313.422 271.657 312.186 271.896 311.132 272.74C310.107 273.567 309.266 275.172 308.609 277.555L305.739 287.967C305.082 290.35 304.981 292.157 305.438 293.39C305.925 294.605 306.877 295.395 308.295 295.759ZM322.689 298.791L325.13 299.418C325.455 299.502 325.692 299.501 325.84 299.415C325.995 299.306 326.113 299.101 326.196 298.8L331.938 277.977C332.027 277.654 332.03 277.419 331.945 277.273C331.861 277.128 331.656 277.013 331.331 276.929L328.89 276.302L329.196 275.191L348.861 280.247L346.518 289.828L345.402 289.541C345.453 289.356 345.509 288.701 345.57 287.577C345.631 286.453 345.581 285.461 345.42 284.602C345.219 283.436 344.802 282.375 344.169 281.419C343.56 280.47 342.744 279.863 341.721 279.6L338.164 278.686C337.862 278.609 337.625 278.61 337.454 278.689C337.306 278.775 337.187 278.98 337.098 279.304L334.457 288.883L336.235 289.34C336.863 289.501 337.514 289.396 338.189 289.024C338.864 288.653 339.455 288.136 339.961 287.473C340.497 286.793 340.857 286.118 341.042 285.447L342.158 285.734L339.163 296.596L338.047 296.309C338.239 295.615 338.274 294.856 338.152 294.032C338.061 293.191 337.818 292.447 337.423 291.801C337.029 291.154 336.518 290.75 335.891 290.589L334.112 290.132L331.357 300.127C331.274 300.428 331.271 300.663 331.349 300.831C331.457 300.983 331.662 301.097 331.964 301.175L335.137 301.991L334.83 303.101L322.383 299.901L322.689 298.791Z" fill="white"/>
<path d="M399.441 327.63C397.953 327.248 396.889 326.504 396.248 325.397C395.63 324.297 395.558 322.891 396.03 321.179L397.216 316.875C397.523 315.765 397.502 314.756 397.155 313.849C396.83 312.948 396.099 312.351 394.96 312.058L393.007 311.556L390.06 322.246C389.977 322.546 389.975 322.781 390.053 322.95C390.16 323.101 390.365 323.216 390.667 323.294L393.736 324.082L393.429 325.193L381.087 322.02L381.393 320.909L383.834 321.537C384.159 321.621 384.396 321.619 384.544 321.534C384.698 321.425 384.817 321.22 384.9 320.919L390.641 300.096C390.731 299.772 390.733 299.537 390.649 299.392C390.565 299.246 390.36 299.132 390.034 299.048L387.594 298.421L387.9 297.31L399.196 300.214C401.707 300.859 403.576 301.935 404.804 303.44C406.038 304.921 406.397 306.599 405.88 308.473C405.44 310.07 404.5 311.178 403.059 311.799C401.642 312.426 399.936 312.607 397.943 312.342L397.876 312.585C399.6 313.375 400.816 314.382 401.525 315.604C402.239 316.804 402.316 318.422 401.755 320.458L400.692 324.31C400.424 325.282 400.616 325.851 401.267 326.018C401.871 326.174 402.45 325.79 403.003 324.867C403.556 323.944 404.031 322.765 404.426 321.33L405.542 321.617C404.923 323.861 404.139 325.53 403.191 326.625C402.248 327.695 400.998 328.031 399.441 327.63ZM395.65 311.046C396.882 311.363 397.866 311.133 398.603 310.356C399.34 309.579 399.932 308.381 400.378 306.762C400.812 305.188 400.893 303.946 400.622 303.033C400.351 302.121 399.599 301.507 398.367 301.19L396.868 300.805C396.566 300.727 396.329 300.728 396.158 300.808C396.01 300.894 395.891 301.099 395.802 301.423L393.314 310.446L395.65 311.046ZM416.983 331.917C415.193 331.457 413.665 330.407 412.399 328.769C411.157 327.136 410.333 325.203 409.929 322.968C409.531 320.71 409.635 318.482 410.241 316.284C410.847 314.086 411.901 312.115 413.402 310.37C414.91 308.602 416.624 307.308 418.543 306.488C420.485 305.674 422.35 305.497 424.14 305.957C425.93 306.418 427.446 307.464 428.689 309.096C429.954 310.735 430.786 312.683 431.184 314.941C431.589 317.176 431.488 319.392 430.882 321.59C430.276 323.788 429.219 325.771 427.711 327.539C426.209 329.284 424.487 330.563 422.545 331.377C420.627 332.197 418.772 332.377 416.983 331.917ZM417.289 330.806C418.707 331.171 419.928 330.94 420.952 330.113C422.007 329.269 422.862 327.655 423.519 325.272L426.39 314.861C427.047 312.478 427.132 310.679 426.646 309.463C426.189 308.231 425.252 307.433 423.834 307.068C422.416 306.704 421.18 306.943 420.126 307.787C419.101 308.614 418.261 310.219 417.604 312.602L414.733 323.014C414.076 325.397 413.976 327.204 414.432 328.437C414.919 329.652 415.871 330.442 417.289 330.806ZM441.293 317.54L441.048 317.477L437.077 331.879C436.79 332.921 436.922 333.797 437.473 334.508C438.053 335.203 438.843 335.678 439.842 335.935L439.536 337.046L430.889 334.823L431.195 333.712C432.195 333.969 433.114 333.933 433.951 333.603C434.818 333.256 435.396 332.562 435.683 331.521L440.793 312.989C440.882 312.665 440.884 312.43 440.8 312.284C440.716 312.139 440.511 312.024 440.185 311.94L437.396 311.223L437.702 310.113L446.035 312.255L447.708 330.97L457.088 315.096L465.944 317.373L465.638 318.484L463.197 317.856C462.895 317.778 462.658 317.78 462.487 317.859C462.339 317.945 462.22 318.15 462.131 318.474L456.389 339.297C456.306 339.598 456.304 339.832 456.382 340.001C456.489 340.153 456.694 340.267 456.997 340.345L459.437 340.972L459.131 342.083L447.416 339.071L447.722 337.961L450.163 338.588C450.488 338.672 450.725 338.671 450.873 338.585C451.028 338.476 451.146 338.271 451.229 337.97L456.674 318.223L444.512 338.771L443.152 338.421L441.293 317.54ZM462.075 341.65L463.26 341.955C463.958 342.134 464.647 342.027 465.328 341.632C466.016 341.214 466.608 340.648 467.104 339.933L480.364 320.411L481.829 320.788L483.099 345.16C483.169 346.441 483.692 347.208 484.668 347.459L486.063 347.817L485.757 348.928L473.519 345.782L473.825 344.671L476.335 345.316C476.614 345.388 476.864 345.341 477.084 345.174C477.333 344.991 477.5 344.749 477.583 344.448C477.653 344.193 477.676 343.84 477.651 343.388L477.454 339.769L470.132 337.887L468.816 339.816C468.382 340.398 468.091 340.955 467.945 341.487C467.83 341.903 467.89 342.315 468.126 342.723C468.392 343.113 468.792 343.377 469.327 343.515L470.966 343.936L470.659 345.047L461.769 342.761L462.075 341.65ZM470.939 336.719L477.39 338.377L476.848 328.018L470.939 336.719ZM499.068 333.135L498.929 333.1L495.283 346.322C494.99 347.386 495.157 348.359 495.786 349.239C496.438 350.125 497.403 350.732 498.681 351.061L498.375 352.171L488.194 349.554L488.5 348.444C489.779 348.772 490.917 348.706 491.916 348.244C492.937 347.788 493.595 347.028 493.889 345.964L497.974 331.145C498.045 330.89 498.072 330.699 498.058 330.571C498.043 330.444 497.986 330.243 497.888 329.97L497.067 327.529C496.93 327.123 496.738 326.825 496.491 326.638C496.251 326.428 495.863 326.254 495.328 326.116L494.701 325.955L495.007 324.844L502.747 326.834L509.532 345.562L512.603 334.422C512.897 333.358 512.718 332.383 512.066 331.497C511.437 330.616 510.484 330.012 509.205 329.683L509.511 328.573L519.692 331.19L519.386 332.301C518.108 331.972 516.958 332.036 515.936 332.492C514.937 332.953 514.291 333.716 513.998 334.781L508.314 355.395L506.989 355.055L499.068 333.135ZM525.073 359.704C524.05 359.441 523.174 359.054 522.443 358.545C521.706 358.058 521.131 357.526 520.718 356.949C520.291 356.418 519.981 356.053 519.787 355.855C519.599 355.633 519.401 355.495 519.192 355.442C518.703 355.316 518.293 355.632 517.96 356.388L517.479 357.454L516.398 357.176L519.213 346.156L520.329 346.443C520.169 348.285 520.259 350.079 520.599 351.827C520.962 353.58 521.559 355.071 522.39 356.301C523.244 357.536 524.31 358.318 525.589 358.647C527.425 359.119 528.792 359.037 529.689 358.4C530.586 357.764 531.175 356.937 531.456 355.919C531.622 355.317 531.548 354.728 531.234 354.152C530.949 353.558 530.474 352.891 529.807 352.15L523.666 345.442C522.765 344.467 522.074 343.361 521.594 342.122C521.138 340.89 521.107 339.557 521.503 338.122C522.121 335.878 523.232 334.379 524.833 333.627C526.464 332.857 528.244 332.72 530.174 333.216C531.824 333.64 533.315 334.643 534.646 336.224C535.066 336.778 535.427 337.093 535.729 337.171C536.148 337.279 536.477 337.078 536.716 336.57L537.184 335.687L538.3 335.974L536.16 345.086L535.045 344.8C535.043 343.09 534.826 341.485 534.393 339.986C533.96 338.488 533.322 337.234 532.48 336.224C531.668 335.198 530.704 334.541 529.589 334.254C528.357 333.938 527.371 333.945 526.633 334.275C525.918 334.612 525.427 335.266 525.159 336.238C524.795 337.556 525.463 339.153 527.161 341.026L533.327 347.777C534.108 348.647 534.628 349.697 534.886 350.928C535.167 352.165 535.145 353.373 534.82 354.553C534.488 355.756 533.882 356.827 533.001 357.765C532.12 358.703 531.002 359.37 529.649 359.765C528.295 360.16 526.77 360.14 525.073 359.704Z" fill="white"/>
<defs>
<linearGradient id="paint0_linear_0_1" x1="390.043" y1="19.4385" x2="390.043" y2="627.438" gradientUnits="userSpaceOnUse">
<stop offset="0.125" stop-color="#CF883C"/>
<stop offset="0.201551" stop-color="#F3A149"/>
<stop offset="0.390625" stop-color="#ECD827" stop-opacity="0.763198"/>
<stop offset="0.57181" stop-color="#E2B83B"/>
<stop offset="0.9999" stop-color="#EE940E"/>
<stop offset="1" stop-color="#F4942D"/>
</linearGradient>
</defs>
</svg>
